<svg width="64" height="64" viewBox="0 0 64 64" fill="none" xmlns="http://www.w3.org/2000/svg">
<rect x="2" y="2" width="60" height="60" rx="30" fill="#FFD663"/>
<path d="M26.8395 15.7102C28.3732 21.4341 23.1492 27.0518 17.7334 31.9539C10.5922 30.4164 3.25917 28.1634 1.72546 22.4395C0.908283 19.3898 1.71232 15.5412 6.27852 14.3177C10.8447 13.0942 13.7073 16.9284 13.7073 16.9284C13.7073 16.9284 14.2694 12.1765 18.8356 10.953C23.4017 9.72952 26.123 13.036 26.8395 15.7102Z" fill="#FF759B"/>
<path d="M37.451 15.7102C35.9173 21.4341 41.1413 27.0518 46.5571 31.9539C53.6984 30.4164 61.0314 28.1634 62.5651 22.4395C63.3822 19.3898 62.5782 15.5412 58.012 14.3177C53.4458 13.0942 50.5832 16.9284 50.5832 16.9284C50.5832 16.9284 50.0212 12.1765 45.455 10.953C40.8888 9.72952 38.1675 13.036 37.451 15.7102Z" fill="#FF759B"/>
<circle cx="15" cy="39" r="5" fill="#FF759B" fill-opacity="0.2"/>
<circle cx="49" cy="39" r="5" fill="#FF759B" fill-opacity="0.2"/>
<path d="M32 48C36.4183 48 40 44.4183 40 40V32H24V40C24 44.4183 27.5817 48 32 48Z" fill="#810024"/>
<path fill-rule="evenodd" clip-rule="evenodd" d="M25.0701 44C26.4533 41.6088 29.0387 40 31.9998 40C34.9609 40 37.5463 41.6088 38.9296 44C37.5463 46.3912 34.9609 48 31.9998 48C29.0387 48 26.4533 46.3912 25.0701 44Z" fill="#FF759B"/>
<path d="M26 32H38V35C38 35.5523 37.5523 36 37 36H27C26.4477 36 26 35.5523 26 35V32Z" fill="white"/>
<path fill-rule="evenodd" clip-rule="evenodd" d="M2.14813 29C2.05016 29.9867 2 30.9875 2 32C2 48.5685 15.4315 62 32 62C48.5685 62 62 48.5685 62 32C62 30.9875 61.9498 29.9867 61.8519 29C60.3467 44.16 47.556 56 32 56C16.444 56 3.6533 44.16 2.14813 29Z" fill="#FFD04C"/>
</svg>
